<svg width="27" height="27" viewBox="0 0 27 27" fill="none" xmlns="http://www.w3.org/2000/svg">
<path d="M25.0659 6.31015L14.2329 14.1843C14.0133 14.3329 13.6473 14.3329 13.4277 14.1843L2.59473 6.31015V6.16158C2.59473 6.01301 2.66793 5.93872 2.81432 5.93872H24.8463C24.9927 5.93872 25.0659 6.01301 25.0659 6.16158V6.31015Z" fill="#A9ADBD"/>
<path d="M25.0664 19.6072L18.2592 12.9958L25.0664 8.01871V19.6072Z" fill="#A9ADBD"/>
<path d="M9.40234 12.9958L2.59511 19.6072V8.01871L9.40234 12.9958Z" fill="#A9ADBD"/>
<path d="M3.54666 20.6471L10.5735 13.8129L12.623 15.2986C13.3549 15.8186 14.3065 15.8186 15.0384 15.2986L17.0879 13.8129L24.1147 20.6471H3.54666Z" fill="#A9ADBD"/>
</svg>
