<svg width="27" height="27" viewBox="0 0 27 27" fill="none" xmlns="http://www.w3.org/2000/svg">
<path d="M20.1066 11.1498H20.0535C20.0535 7.71993 17.2601 4.92651 13.8302 4.92651C10.4003 4.92651 7.60691 7.71993 7.60691 11.1498H7.55387C6.68756 11.1498 5.99805 11.857 5.99805 12.7056V20.1489C5.99805 21.0152 6.70524 21.7047 7.55387 21.7047H20.1066C20.9729 21.7047 21.6624 20.9975 21.6624 20.1489V12.7056C21.6801 11.8393 20.9729 11.1498 20.1066 11.1498ZM15.1385 18.7522C15.1739 18.8759 15.1385 19.0174 15.0678 19.1234C14.9794 19.2295 14.8557 19.2826 14.7319 19.2826H12.9285C12.7871 19.2826 12.681 19.2295 12.5926 19.1234C12.5042 19.0174 12.4866 18.8759 12.5219 18.7522L13.1053 16.5068C12.6103 16.2416 12.2744 15.7289 12.2744 15.1278C12.2744 14.2615 12.9816 13.572 13.8302 13.572C14.6789 13.572 15.386 14.2792 15.386 15.1278C15.386 15.7289 15.0501 16.2416 14.5551 16.5068L15.1385 18.7522ZM17.9319 11.1498H9.7285C9.7285 8.8868 11.5672 7.0481 13.8302 7.0481C16.0932 7.0481 17.9319 8.8868 17.9319 11.1498Z" fill="#A9ADBD"/>
</svg>
