<?xml version="1.0" encoding="UTF-8" standalone="no"?>
<!DOCTYPE svg PUBLIC "-//W3C//DTD SVG 1.1//EN" "http://www.w3.org/Graphics/SVG/1.1/DTD/svg11.dtd">
<svg width="100%" height="100%" viewBox="0 0 2539 738" version="1.1" xmlns="http://www.w3.org/2000/svg" xmlns:xlink="http://www.w3.org/1999/xlink" xml:space="preserve" xmlns:serif="http://www.serif.com/" style="fill-rule:evenodd;clip-rule:evenodd;stroke-linejoin:round;stroke-miterlimit:2;">
    <g transform="matrix(1,0,0,1,-100593,-20821.8)">
        <g id="icono-app" transform="matrix(0.723727,0,0,1.04301,27813.2,-911.889)">
            <rect x="100563" y="20837.5" width="3507.36" height="706.792" style="fill:none;"/>
            <g transform="matrix(47.3144,0,0,9.0479,-3.72505e+06,-171619)">
                <g transform="matrix(0.136549,0,0,0.495472,69825,10807.1)">
                    <text x="80958.2px" y="21229.9px" style="font-family:'Actor-Regular', 'Actor', sans-serif;font-size:114.551px;fill:white;fill-opacity:0.4;">asomic</text>
                </g>
                <g transform="matrix(0.0326404,0,0,0.118437,78497.6,19005.6)">
                    <g transform="matrix(1.83185,0,0,1.83185,3788.24,16952.8)">
                        <circle cx="37548.8" cy="1491.85" r="19.107" style="fill:white;fill-opacity:0.4;"/>
                    </g>
                    <g transform="matrix(1.83185,0,0,1.83185,3788.24,16952.8)">
                        <circle cx="37458.6" cy="1456.22" r="19.107" style="fill:white;fill-opacity:0.4;"/>
                    </g>
                    <g transform="matrix(1.83185,0,0,1.83185,3788.24,16952.8)">
                        <circle cx="37640.6" cy="1455.9" r="19.107" style="fill:white;fill-opacity:0.4;"/>
                    </g>
                    <g transform="matrix(1.83185,0,0,1.83185,3788.24,16952.8)">
                        <circle cx="37419.8" cy="1366.95" r="19.107" style="fill:white;fill-opacity:0.4;"/>
                    </g>
                    <g transform="matrix(1.83185,0,0,1.83185,3788.24,16952.8)">
                        <circle cx="37679.1" cy="1366.84" r="19.107" style="fill:white;fill-opacity:0.4;"/>
                    </g>
                    <g transform="matrix(1.83185,0,0,1.83185,3788.24,16952.8)">
                        <circle cx="37458.2" cy="1277.96" r="19.107" style="fill:white;fill-opacity:0.4;"/>
                    </g>
                    <g transform="matrix(1.83185,0,0,1.83185,3788.24,16952.8)">
                        <circle cx="37640.8" cy="1277.62" r="19.107" style="fill:white;fill-opacity:0.4;"/>
                    </g>
                    <g transform="matrix(1.83185,0,0,1.83185,3788.24,16952.8)">
                        <circle cx="37549.8" cy="1241.68" r="19.107" style="fill:white;fill-opacity:0.4;"/>
                    </g>
                    <g transform="matrix(1.83185,0,0,1.83185,3788.24,16952.8)">
                        <circle cx="37579.1" cy="1437.38" r="12.81" style="fill:white;fill-opacity:0.4;"/>
                    </g>
                    <g transform="matrix(1.83185,0,0,1.83185,3788.24,16952.8)">
                        <circle cx="37519.1" cy="1437.19" r="12.81" style="fill:white;fill-opacity:0.4;"/>
                    </g>
                    <g transform="matrix(1.83185,0,0,1.83185,3788.24,16952.8)">
                        <circle cx="37476.4" cy="1396.51" r="12.81" style="fill:white;fill-opacity:0.4;"/>
                    </g>
                    <g transform="matrix(1.83185,0,0,1.83185,3788.24,16952.8)">
                        <circle cx="37622.1" cy="1396.24" r="12.81" style="fill:white;fill-opacity:0.4;"/>
                    </g>
                    <g transform="matrix(1.83185,0,0,1.83185,3788.24,16952.8)">
                        <circle cx="37476.5" cy="1337.21" r="12.81" style="fill:white;fill-opacity:0.4;"/>
                    </g>
                    <g transform="matrix(1.83185,0,0,1.83185,3788.24,16952.8)">
                        <circle cx="37622" cy="1336.96" r="12.81" style="fill:white;fill-opacity:0.4;"/>
                    </g>
                    <g transform="matrix(1.83185,0,0,1.83185,3788.24,16952.8)">
                        <circle cx="37519.3" cy="1296.26" r="12.81" style="fill:white;fill-opacity:0.4;"/>
                    </g>
                    <g transform="matrix(1.83185,0,0,1.83185,3788.24,16952.8)">
                        <circle cx="37579.5" cy="1296.07" r="12.81" style="fill:white;fill-opacity:0.4;"/>
                    </g>
                </g>
            </g>
        </g>
    </g>
</svg>
