<svg width="21" height="23" viewBox="0 0 21 23" fill="none" xmlns="http://www.w3.org/2000/svg">
<path d="M13.8404 19.5802C13.7441 21.3395 12.287 22.7364 10.5037 22.7364C8.72038 22.7364 7.26331 21.3395 7.16698 19.5802H1.96449C1.34813 19.5802 0.849609 19.083 0.849609 18.4674V17.3524C0.849609 16.1231 1.84794 15.1245 3.07825 15.1245C3.07681 15.1245 3.07748 10.6685 3.07748 10.6685C3.07748 7.5299 5.04018 4.77815 7.90453 3.70992V3.61207C7.90453 2.17798 9.06988 1.01465 10.5037 1.01465C11.9391 1.01465 13.1029 2.17728 13.1029 3.61207V3.70998C15.9672 4.77836 17.9299 7.53056 17.9299 10.6685V15.1238C19.1576 15.1245 20.1578 16.1227 20.1578 17.3524V18.4674C20.1578 19.0805 19.6577 19.5802 19.0429 19.5802H13.8404ZM12.3511 19.5802H8.65632C8.74947 20.5184 9.54102 21.2511 10.5037 21.2511C11.4664 21.2511 12.258 20.5184 12.3511 19.5802ZM18.6726 18.095V17.3524C18.6726 16.9436 18.338 16.6097 17.9292 16.6097C17.1085 16.6097 16.4447 15.9463 16.4447 15.1238V10.6685C16.4447 8.00422 14.6757 5.68713 12.1544 4.95981L11.6176 4.80496V3.61207C11.6176 2.9979 11.1191 2.4999 10.5037 2.4999C9.88958 2.4999 9.38978 2.99884 9.38978 3.61207V4.80494L8.85296 4.95978C6.33158 5.68702 4.56273 8.00357 4.56273 10.6685V15.1238C4.56273 15.9439 3.89729 16.6097 3.07825 16.6097C2.66831 16.6097 2.33486 16.9433 2.33486 17.3524V18.095H18.6726Z" fill="white" stroke="white" stroke-width="0.5"/>
</svg>
