<?xml version="1.0" encoding="UTF-8" standalone="no"?><!DOCTYPE svg PUBLIC "-//W3C//DTD SVG 1.1//EN" "http://www.w3.org/Graphics/SVG/1.1/DTD/svg11.dtd"><svg width="100%" height="100%" viewBox="0 0 512 512" version="1.1" xmlns="http://www.w3.org/2000/svg" xmlns:xlink="http://www.w3.org/1999/xlink" xml:space="preserve" xmlns:serif="http://www.serif.com/" style="fill-rule:evenodd;clip-rule:evenodd;stroke-linejoin:round;stroke-miterlimit:2;"><path d="M391.553,64l-333.946,0c-4.476,0 -9.607,3.745 -9.607,8.159l0,214.217c0,4.413 5.131,8.624 9.607,8.624l57.393,0l0,88.894l90.128,-88.894l186.425,0c4.477,0 7.447,-4.211 7.447,-8.624l0,-214.217c0,-4.414 -2.971,-8.159 -7.447,-8.159Z" style="fill:#fff;fill-rule:nonzero;"/><path d="M456.396,127l-32.396,0l0,166.57c0,15.987 -6.915,26.43 -25.152,26.43l-180.752,0l-38.905,39l129.688,0l90.121,89l0,-89l57.396,0c4.478,0 7.604,-4.262 7.604,-8.682l0,-214.215c0,-4.414 -3.126,-9.103 -7.604,-9.103Z" style="fill:#fff;fill-rule:nonzero;"/></svg>