<?xml version="1.0" encoding="UTF-8" standalone="no"?><!DOCTYPE svg PUBLIC "-//W3C//DTD SVG 1.1//EN" "http://www.w3.org/Graphics/SVG/1.1/DTD/svg11.dtd"><svg width="100%" height="100%" viewBox="0 0 512 512" version="1.1" xmlns="http://www.w3.org/2000/svg" xmlns:xlink="http://www.w3.org/1999/xlink" xml:space="preserve" xmlns:serif="http://www.serif.com/" style="fill-rule:evenodd;clip-rule:evenodd;stroke-linejoin:round;stroke-miterlimit:2;"><path d="M186.301,339.893l-90.301,-90.432l-32,30.507l122.301,122.032l261.699,-261.494l-32,-30.506l-229.699,229.893Z" style="fill:#fff;fill-rule:nonzero;"/><path d="M417.014,107.421l0.898,0.573l32,30.506l0.629,0.9l0.23,1.073l-0.205,1.079l-0.607,0.914l-261.699,261.494c0,0 -0.867,2.035 -3.916,0.002l-122.301,-122.032l-0.609,-0.915l-0.205,-1.079l0.23,-1.073l0.629,-0.901l32,-30.507l0.898,-0.573c1.786,-0.327 2.376,0.218 2.975,0.621l88.341,88.469l227.738,-227.931l0.883,-0.595l1.043,-0.217c0.35,0.064 0.699,0.128 1.048,0.192Z" style="fill:#fff;"/></svg>