<svg width="42" height="41" viewBox="0 0 42 41" fill="none" xmlns="http://www.w3.org/2000/svg">
<path d="M36.3035 4.28343H32.8859V0.988419H30.6084V4.28343H12.3843V0.988419H10.1055V4.28343H6.69056C3.54975 4.28343 0.994141 6.7481 0.994141 9.77688V35.0417C0.994141 38.0705 3.54975 40.5352 6.69056 40.5352H36.3035C39.4443 40.5352 41.9999 38.0705 41.9999 35.0417V15.2677V13.0719V9.77556C41.9973 6.74678 39.443 4.28343 36.3035 4.28343ZM39.7198 35.0391C39.7198 36.8553 38.1869 38.3341 36.3035 38.3341H6.69056C4.80449 38.3341 3.27165 36.8553 3.27165 35.0391V15.2677H39.7198V35.0391ZM39.7198 13.0719H3.27165V9.77556C3.27165 7.95671 4.80449 6.47923 6.69056 6.47923H10.1081V8.67634H12.3843V6.48055H30.6084V8.67766H32.8859V6.48055H36.3035C38.1869 6.48055 39.7198 7.95671 39.7198 9.77556V13.0719Z" fill="#ED1C24"/>
</svg>
