<svg width="44" height="44" viewBox="0 0 44 44" fill="none" xmlns="http://www.w3.org/2000/svg">
<path d="M21.8974 40.4952C32.2436 40.4952 40.6308 32.108 40.6308 21.7618C40.6308 11.4156 32.2436 3.02839 21.8974 3.02839C11.5512 3.02839 3.16401 11.4156 3.16401 21.7618C3.16401 32.108 11.5512 40.4952 21.8974 40.4952ZM21.8974 43.3052C9.99931 43.3052 0.354004 33.6599 0.354004 21.7618C0.354004 9.86369 9.99931 0.218384 21.8974 0.218384C33.7955 0.218384 43.4408 9.86369 43.4408 21.7618C43.4408 33.6599 33.7955 43.3052 21.8974 43.3052Z" fill="#ED1C24"/>
<path d="M21.8976 35.3435C29.3985 35.3435 35.4793 29.2628 35.4793 21.7618C35.4793 14.2608 29.3985 8.18008 21.8976 8.18008C14.3966 8.18008 8.31587 14.2608 8.31587 21.7618C8.31587 29.2628 14.3966 35.3435 21.8976 35.3435ZM21.8976 38.1535C12.8447 38.1535 5.50586 30.8147 5.50586 21.7618C5.50586 12.7089 12.8447 5.37007 21.8976 5.37007C30.9505 5.37007 38.2893 12.7089 38.2893 21.7618C38.2893 30.8147 30.9505 38.1535 21.8976 38.1535Z" fill="#ED1C24"/>
<path d="M19.3627 20.3568L12.516 9.3997L14.899 7.91062L21.8974 19.1104L28.8958 7.91062L31.2789 9.3997L24.4321 20.3568H37.3525V23.1668H24.4321L31.2789 34.1239L28.8958 35.6129L21.8974 24.4131L14.899 35.6129L12.516 34.1239L19.3627 23.1668H6.44238V20.3568H19.3627ZM21.8974 23.1668C22.6734 23.1668 23.3024 22.5377 23.3024 21.7618C23.3024 20.9858 22.6734 20.3568 21.8974 20.3568C21.1215 20.3568 20.4924 20.9858 20.4924 21.7618C20.4924 22.5377 21.1215 23.1668 21.8974 23.1668Z" fill="#ED1C24"/>
<path d="M21.8976 25.9768C19.5697 25.9768 17.6826 24.0897 17.6826 21.7618C17.6826 19.4339 19.5697 17.5468 21.8976 17.5468C24.2255 17.5468 26.1126 19.4339 26.1126 21.7618C26.1126 24.0897 24.2255 25.9768 21.8976 25.9768ZM21.8976 23.1668C22.6736 23.1668 23.3026 22.5378 23.3026 21.7618C23.3026 20.9858 22.6736 20.3568 21.8976 20.3568C21.1217 20.3568 20.4926 20.9858 20.4926 21.7618C20.4926 22.5378 21.1217 23.1668 21.8976 23.1668Z" fill="#ED1C24"/>
</svg>
