<svg width="71" height="30" viewBox="0 0 71 30" fill="none" xmlns="http://www.w3.org/2000/svg">
<path d="M13.5 1.9256C13.5 0.976704 14.3698 0.185955 15.3978 0.344105C16.1885 0.502254 16.742 1.21393 16.742 2.00468V2.2419H20.1422C23.7006 2.2419 26.3892 3.90248 29.1568 5.48397L29.3149 5.56305L29.394 5.64212C31.7663 7.06547 33.6641 7.77714 35.4037 7.77714H35.4828H35.5619C37.3015 7.77714 39.1993 6.9864 41.7297 5.56305L41.8088 5.48397C44.4973 3.90248 47.2649 2.2419 50.8233 2.2419H54.3026V2.00468C54.3026 1.21393 54.8561 0.423179 55.6469 0.344105C56.6749 0.185955 57.5447 0.976704 57.5447 1.9256V2.2419H59.2053H67.5081C68.9315 2.2419 70.2757 3.34895 70.3548 4.7723C70.4339 6.3538 69.1687 7.619 67.6663 7.619H59.2053H57.4656V7.85622C57.4656 8.64697 56.9121 9.35864 56.1213 9.51679C55.0934 9.67494 54.2235 8.88419 54.2235 7.93529V7.619H50.7442C48.6883 7.619 46.5533 8.88419 44.4973 10.1494C42.9949 11.0192 41.6506 11.7309 40.3854 12.2053C39.1202 12.6798 38.1713 13.945 38.1713 15.2893V26.5179C38.1713 27.7831 37.3015 28.9692 36.0363 29.2064C34.2967 29.6018 32.7942 28.2575 32.7942 26.597V15.2893C32.7942 13.8659 31.9244 12.6798 30.6592 12.2053C29.394 11.7309 28.1288 11.0983 26.7055 10.2285C26.5473 10.1494 26.4682 10.1494 26.3101 9.99124C24.2541 8.80512 22.1982 7.53992 20.1422 7.53992H16.742V7.77714C16.742 8.56789 16.1885 9.27957 15.3978 9.43772C14.3698 9.59587 13.5 8.80512 13.5 7.85622V7.53992H11.7603H3.37836C2.11316 7.53992 0.927041 6.67009 0.689817 5.4049C0.373517 3.66525 1.63872 2.16283 3.29929 2.16283H11.7603H13.5V1.9256Z" fill="#ED1C24"/>
</svg>
