<svg width="66" height="45" viewBox="0 0 66 45" fill="none" xmlns="http://www.w3.org/2000/svg">
<path d="M53.641 44.6515H50.3762V26.1323C50.3762 22.1535 47.1396 18.9169 43.1615 18.9169H10.7259C6.74781 18.9169 3.51049 22.1535 3.51049 26.1323V44.6515H0.245605V26.1323C0.245605 20.3535 4.94705 15.6521 10.7259 15.6521H43.1615C48.9403 15.6521 53.641 20.3535 53.641 26.1323V44.6515Z" fill="#747885"/>
<path d="M59.4816 36.9326H56.2167V18.4134C56.2167 14.4353 52.9794 11.198 49.0013 11.198H16.5657C12.5877 11.198 9.35034 14.4346 9.35034 18.4134V36.9333H6.08545V18.4134C6.08545 12.6346 10.7869 7.93314 16.5657 7.93314H49.0006C54.7795 7.93314 59.4809 12.6346 59.4809 18.4134V36.9326H59.4816Z" fill="#747885"/>
<path d="M65.3215 29.2144H62.0566V10.6945C62.0566 6.7157 58.8193 3.47911 54.8412 3.47911H22.4056C18.4275 3.47911 15.1902 6.7157 15.1902 10.6945V29.2144H11.9253V10.6945C11.9253 4.91566 16.6267 0.214218 22.4056 0.214218H54.8404C60.6193 0.214218 65.3207 4.91566 65.3207 10.6945V29.2144H65.3215Z" fill="#747885"/>
</svg>
