<svg width="131" height="47" viewBox="0 0 131 47" fill="none" xmlns="http://www.w3.org/2000/svg">
<path d="M101.07 37.6155H96.7462C96.6775 37.8951 96.6034 38.1769 96.5227 38.4607C96.1525 39.7635 96.9086 41.1198 98.2118 41.4898C98.4356 41.5534 98.6609 41.5836 98.8826 41.5836C99.9514 41.5836 100.934 40.8794 101.241 39.8004C101.401 39.2353 101.541 38.6764 101.663 38.1237C101.44 37.9814 101.242 37.81 101.07 37.6155Z" fill="#747885"/>
<path d="M97.1986 35.261H100.393C100.442 34.9685 100.536 34.682 100.677 34.4117C101.624 32.6008 102.147 30.9889 102.236 29.6106C102.178 28.9122 102.097 28.2394 101.998 27.5941C101.882 27.258 101.726 26.9382 101.521 26.6235C101.254 26.2202 100.891 25.8313 100.456 25.4742H96.5327C97.032 27.2524 97.437 29.4666 97.4317 31.9683C97.4321 33.0162 97.3599 34.1168 97.1986 35.261Z" fill="#747885"/>
<path d="M54.1493 26.9831L56.2868 28.1403L55.6439 30.6094C56.4185 32.0143 56.9223 33.5882 57.0843 35.261H57.8234L60.5262 31.3251L61.5181 27.5166C61.7057 26.7969 61.5493 26.052 61.1373 25.474H53.749C53.8905 25.9453 54.0257 26.4489 54.1493 26.9831Z" fill="#747885"/>
<path d="M53.4068 21.0035C53.0489 21.3182 52.7032 21.6429 52.377 21.9784C52.562 22.351 52.7328 22.7222 52.8959 23.1048C52.898 23.1095 52.8998 23.1148 52.902 23.1195H57.3152L53.4068 21.0035Z" fill="#747885"/>
<path d="M69.0744 9.18799C69.1003 9.33396 69.093 9.47895 69.0446 9.61668C68.828 10.2298 67.9068 10.4631 66.9875 10.1382C66.0767 9.8166 65.5107 9.06773 65.7099 8.45795C64.3583 8.09421 62.8664 7.64845 61.4628 7.22919C60.5835 8.95903 60.9223 11.1274 62.4289 12.4939C64.2341 14.1321 67.0253 13.9961 68.6634 12.1913C69.4332 11.3428 69.8062 10.2765 69.8033 9.21448C69.6088 9.23037 69.3628 9.22017 69.0744 9.18799Z" fill="#747885"/>
<path d="M72.5596 28.5906C73.7992 28.5906 74.9713 28.879 76.0134 29.3909C76.3809 28.6918 76.8017 28.0403 77.2691 27.4448C75.861 26.7059 74.2597 26.2859 72.5594 26.2859C71.4148 26.2859 70.3156 26.4782 69.2891 26.8274L70.2877 28.9259C71.0071 28.7087 71.7696 28.5906 72.5596 28.5906Z" fill="#747885"/>
<path d="M72.5598 44.2864C68.2255 44.2864 64.7116 40.7727 64.7116 36.4384C64.7116 33.7337 66.0803 31.3489 68.1625 29.9377L67.1643 27.8398C64.3071 29.6363 62.4067 32.8145 62.4067 36.4386C62.4067 42.0458 66.9526 46.5913 72.5598 46.5913C74.2842 46.5913 75.9075 46.16 77.3295 45.4015C76.857 44.8094 76.4313 44.1602 76.0583 43.4635C75.0048 43.9889 73.8172 44.2864 72.5598 44.2864Z" fill="#747885"/>
<path d="M71.6131 21.1048C71.5215 22.1231 70.6819 22.8908 69.6607 22.8908C69.6025 22.8908 69.543 22.8882 69.4838 22.8827C69.2644 22.8629 69.049 22.8376 68.8354 22.8093C68.8144 22.8225 68.7926 22.837 68.7718 22.8498C67.7053 23.4948 66.9195 23.5115 66.8228 23.5125C66.8193 23.5125 66.8163 23.5125 66.814 23.5125C66.8079 23.5121 66.8016 23.5131 66.7951 23.5129C66.7906 23.5129 66.7863 23.5119 66.7818 23.5119H53.0645C53.2518 23.9785 53.4429 24.5049 53.6269 25.0815H65.2899L58.0299 35.6538H57.1143C57.131 35.9136 57.1424 36.1745 57.1424 36.4384C57.1424 36.7029 57.1229 36.9644 57.089 37.2234H58.4427C58.7021 37.2234 58.9424 37.0968 59.0896 36.883L66.6576 25.8631L71.8507 36.7757C71.9853 37.0582 72.2668 37.2236 72.5599 37.2236C72.6729 37.2236 72.7879 37.199 72.8968 37.1472C73.288 36.9611 73.4544 36.4923 73.2682 36.1013L67.9433 24.9114C68.4031 24.7848 68.9668 24.5669 69.5848 24.1927C70.9405 23.374 72.5305 21.8123 73.8693 18.939C74.0526 18.546 73.8827 18.0793 73.4899 17.8962C73.0971 17.7128 72.6303 17.8829 72.4469 18.2757V18.2751C72.1177 18.979 71.7789 19.5839 71.4389 20.1087C71.5785 20.4103 71.6451 20.7507 71.6131 21.1048Z" fill="#747885"/>
<path d="M45.1727 23.9558L44.9351 24.3267C44.9663 24.3265 44.9969 24.3243 45.0283 24.3243C45.8151 24.3243 46.5834 24.4022 47.3287 24.5462C47.085 24.063 46.8841 23.7416 46.7849 23.5919C46.5145 23.1846 46.1243 22.3659 45.8665 21.401C45.6915 21.4183 45.5208 21.4391 45.3572 21.4655C44.7896 22.2925 44.2175 22.9384 43.6777 23.441C43.9544 23.6109 44.3234 23.7573 44.7633 23.8681C44.8936 23.9009 45.0315 23.9294 45.1727 23.9558Z" fill="#747885"/>
<path d="M46.7326 18.2046C46.8403 18.5001 46.8264 18.8201 46.6931 19.1046C46.4832 19.5552 46.267 19.9696 46.0479 20.3565C46.2291 21.6604 46.7799 22.8748 47.1118 23.3748C47.32 23.6887 47.566 24.1175 47.8197 24.6524C50.2529 25.2288 52.4055 26.5386 54.0271 28.3379C53.6694 26.3081 53.1063 24.6002 52.5352 23.2586C52.3214 22.7565 52.1071 22.3078 51.9021 21.9078C53.7677 19.9186 56.2982 18.2968 58.2847 17.0082C56.9841 15.5499 56.271 14.3263 56.116 14.0481C55.8584 13.5721 55.8036 13.042 55.9535 12.5395C56.1026 12.0373 56.4387 11.6235 56.8996 11.3743C57.1858 11.2191 57.5082 11.1375 57.8315 11.1375C58.5535 11.1375 59.2153 11.5315 59.5586 12.1656L59.5786 12.2005C59.6067 12.2482 59.6396 12.3039 59.684 12.3757C59.7768 12.5268 59.9331 12.7702 60.1544 13.0791C60.3834 13.3992 60.7046 13.8175 61.1087 14.2796C61.4532 13.4734 61.4927 12.6205 61.0799 11.918C60.2051 10.4298 57.8556 9.33272 55.1132 10.6394C51.3522 12.4577 49.3121 14.0567 46.5558 17.4709C46.4989 17.5537 46.4483 17.6396 46.4008 17.7267C46.5474 17.8556 46.6639 18.0159 46.7326 18.2046Z" fill="#747885"/>
<path d="M59.8354 13.3079C59.6158 13.0012 59.4538 12.7509 59.3502 12.5825C59.2984 12.4988 59.2613 12.4352 59.2384 12.3958C59.2268 12.3761 59.2191 12.3622 59.215 12.3552L59.2138 12.3524C58.801 11.5904 57.8485 11.3069 57.0863 11.7195C56.3241 12.1317 56.0406 13.0844 56.4532 13.847L56.4528 13.8466C56.5062 13.9406 57.5395 15.8455 59.6712 17.8808C61.7944 19.9084 65.0757 22.0915 69.5184 22.4923C69.5658 22.4965 69.6133 22.4986 69.6606 22.4986C70.4638 22.4986 71.1489 21.8855 71.2225 21.0701C71.3 20.2067 70.6634 19.4437 69.8001 19.3658C66.2633 19.0472 63.6319 17.3159 61.837 15.6086C60.9447 14.7581 60.2741 13.9214 59.8354 13.3079Z" fill="#747885"/>
<path d="M64.7578 2.73608C61.6573 2.10806 55.2643 4.42825 56.1272 5.29798C56.2249 5.39667 56.4142 5.47691 56.7138 5.53185C59.6567 6.07138 69.904 9.80575 70.2936 8.58679C70.3841 8.30349 70.4337 8.02293 70.4496 7.7463C70.5812 5.44552 68.2167 3.43669 64.7578 2.73608Z" fill="#747885"/>
<path d="M26.618 26.9832L28.7557 28.1405L27.5246 32.8668C27.2917 33.7603 27.5837 34.6661 28.2074 35.2612H30.292L32.9949 31.3249L33.1432 30.7556L33.9869 27.517C34.174 26.7974 34.0179 26.0524 33.6061 25.4744H26.2178C26.3594 25.9453 26.4942 26.4487 26.618 26.9832Z" fill="#747885"/>
<path d="M25.8755 21.0035C25.5175 21.3182 25.172 21.6429 24.8457 21.9782C25.0307 22.3508 25.2016 22.722 25.3646 23.1046C25.3666 23.1093 25.3688 23.1146 25.3707 23.1193H29.7837L25.8755 21.0035Z" fill="#747885"/>
<path d="M41.5425 9.18799C41.5682 9.33396 41.5614 9.47895 41.5127 9.61668C41.2959 10.2298 40.375 10.4631 39.4556 10.1382C38.5449 9.8166 37.9789 9.06773 38.1782 8.45795C36.8266 8.09421 35.3345 7.64845 33.931 7.22919C33.0518 8.95903 33.3906 11.1274 34.897 12.4939C36.7022 14.1321 39.4935 13.9961 41.1315 12.1913C41.9014 11.3428 42.2741 10.2765 42.2714 9.21448C42.0768 9.23037 41.8309 9.22017 41.5425 9.18799Z" fill="#747885"/>
<path d="M55.1808 36.4384C55.1808 30.8313 50.6354 26.2859 45.0286 26.2859C43.884 26.2859 42.7847 26.4782 41.7582 26.8274L42.757 28.9259C43.4763 28.7087 44.2385 28.5906 45.0286 28.5906C49.3629 28.5906 52.8763 32.1042 52.8763 36.4384C52.8763 40.7727 49.3629 44.2863 45.0286 44.2863C40.6942 44.2863 37.1804 40.7727 37.1804 36.4384C37.1804 33.7336 38.549 31.3489 40.6311 29.9377L39.6328 27.8397C36.7758 29.6363 34.8755 32.8145 34.8755 36.4386C34.8755 42.0458 39.4213 46.5912 45.0286 46.5912C50.6354 46.591 55.1808 42.0458 55.1808 36.4384Z" fill="#747885"/>
<path d="M11.0208 46.591C15.8641 46.591 19.9124 43.1986 20.9261 38.661C20.9075 38.3919 20.9263 38.1158 20.9887 37.8394C21.0056 37.7648 21.0201 37.6903 21.0364 37.6155H20.8468L20.8875 37.2231H21.12C21.2251 36.6979 21.3108 36.1745 21.3799 35.6536H21.0499L21.0905 35.261H21.1029C20.7617 32.3083 19.1543 29.7426 16.8368 28.1193L17.9469 26.3875L18.7843 25.0812H20.0523C19.6979 24.2939 19.3858 23.7911 19.2534 23.5915C18.9828 23.1842 18.5928 22.3655 18.3348 21.4006C16.7668 21.556 15.6087 22.0901 15.6087 22.7269C15.6087 23.2023 16.2531 23.6212 17.2318 23.8676C17.362 23.9003 17.5 23.929 17.6414 23.9555L16.499 25.7377L15.4854 27.319C14.1378 26.6579 12.623 26.2855 11.0206 26.2855C5.4136 26.2859 0.868164 30.8313 0.868164 36.4384C0.868164 42.0458 5.4136 46.591 11.0208 46.591ZM18.8296 35.6536H12.0075L15.5922 30.0614C17.3756 31.3422 18.6008 33.3506 18.8296 35.6536ZM11.0208 28.5906C12.1648 28.5906 13.2506 28.8374 14.2306 29.2775L9.91214 36.015C9.75656 36.2573 9.74616 36.5622 9.88409 36.815C10.0224 37.0674 10.2845 37.2231 10.5727 37.2231H18.8294C18.4354 41.1888 15.0901 44.2863 11.0206 44.2863C6.68631 44.2863 3.17286 40.7727 3.17286 36.4384C3.17306 32.1044 6.68651 28.5906 11.0208 28.5906Z" fill="#747885"/>
<path d="M44.0815 21.1048C43.9899 22.1231 43.1504 22.8908 42.1292 22.8908C42.0709 22.8908 42.0115 22.8882 41.9522 22.8827C41.7331 22.8629 41.5173 22.8376 41.3038 22.8093C41.2828 22.8225 41.261 22.837 41.2402 22.8498C40.1737 23.4948 39.388 23.5115 39.2912 23.5125C39.2877 23.5125 39.2848 23.5125 39.2824 23.5125C39.2763 23.5121 39.2701 23.5131 39.2636 23.5129C39.2591 23.5129 39.2548 23.5119 39.2502 23.5119H25.5327C25.7203 23.9785 25.9114 24.5049 26.0954 25.0815H37.7584L30.4984 35.6538H27.1095C27.054 36.1755 26.9838 36.6989 26.8992 37.2234H30.9116C31.171 37.2234 31.4113 37.0968 31.5584 36.883L39.1264 25.8631L44.3195 36.7757C44.4541 37.0582 44.7356 37.2236 45.0288 37.2236C45.1418 37.2236 45.2567 37.199 45.3656 37.1472C45.7568 36.9611 45.9232 36.4923 45.737 36.1013L40.4117 24.9114C40.8716 24.7848 41.4353 24.5669 42.0533 24.1927C43.409 23.374 44.9989 21.8123 46.3378 18.939C46.521 18.546 46.3511 18.0793 45.9583 17.8962C45.5655 17.7128 45.0988 17.8829 44.9154 18.2757V18.2751C44.5861 18.979 44.2475 19.5839 43.9071 20.1087C44.047 20.4103 44.1133 20.7507 44.0815 21.1048Z" fill="#747885"/>
<path d="M19.58 23.3749C20.103 24.1633 20.8637 25.6714 21.3859 27.7858C21.4438 27.7893 21.5213 27.7938 21.6175 27.7982C21.8364 27.8086 22.1458 27.8186 22.5097 27.8186C23.6642 27.8254 25.3693 27.6973 26.2684 27.2045C25.9214 25.6661 25.4646 24.3426 25.0034 23.2586C24.7895 22.7565 24.5753 22.3078 24.3703 21.9078C26.2359 19.9186 28.7662 18.2968 30.7531 17.0082C29.4525 15.5499 28.7389 14.3263 28.5841 14.0481C28.3265 13.5721 28.2718 13.042 28.4217 12.5395C28.5708 12.0373 28.9069 11.6235 29.3677 11.3743C29.654 11.2191 29.9763 11.1375 30.2997 11.1375C31.0216 11.1375 31.6834 11.5315 32.0267 12.1656L32.0468 12.2005C32.0748 12.2482 32.1078 12.3039 32.1521 12.3757C32.2449 12.5268 32.4013 12.7702 32.6226 13.0791C32.8517 13.3992 33.1729 13.8175 33.5767 14.2796C33.9214 13.4734 33.9608 12.6205 33.548 11.918C32.6732 10.4298 30.3238 9.33272 27.5814 10.6394C23.8203 12.4577 21.7803 14.0567 19.024 17.4709C17.7185 19.3659 18.9926 22.4901 19.58 23.3749Z" fill="#747885"/>
<path d="M26.8764 32.7341C26.8766 30.9167 26.6874 29.2667 26.3943 27.7968C25.2803 28.3232 23.6533 28.4011 22.5097 28.4072C22.0977 28.4072 21.7528 28.3946 21.5238 28.3832C21.7934 29.6475 21.9719 31.1047 21.9715 32.7339C21.9715 34.2969 21.8014 36.0286 21.3714 37.9258C21.0718 39.2465 21.8993 40.5602 23.2203 40.8598C23.4031 40.9012 23.5854 40.9212 23.7651 40.9212C24.8852 40.9214 25.8964 40.1492 26.1548 39.0107C26.6665 36.7558 26.8764 34.6536 26.8764 32.7341Z" fill="#747885"/>
<path d="M32.3041 13.3079C32.0846 13.0012 31.9225 12.7509 31.8189 12.5825C31.7671 12.4988 31.7301 12.4352 31.7071 12.3958C31.6955 12.3761 31.6879 12.3622 31.6838 12.3552L31.6826 12.3524C31.2698 11.5904 30.3173 11.3069 29.5551 11.7195C28.7928 12.1317 28.5093 13.0844 28.9219 13.847L28.9215 13.8466C28.9747 13.9406 30.0083 15.8455 32.1399 17.8808C34.2631 19.9084 37.5445 22.0915 41.9871 22.4923C42.0346 22.4965 42.0821 22.4986 42.1294 22.4986C42.9326 22.4986 43.6177 21.8855 43.6913 21.0701C43.7688 20.2067 43.1321 19.4437 42.2688 19.3658C38.732 19.0472 36.1007 17.3159 34.3057 15.6086C33.4134 14.7581 32.7428 13.9214 32.3041 13.3079Z" fill="#747885"/>
<path d="M28.5959 5.29797C28.6936 5.39666 28.8831 5.4769 29.1825 5.53184C32.1254 6.07137 42.3727 9.80574 42.7623 8.58678C42.8528 8.30348 42.9026 8.02292 42.9183 7.74629C43.0501 5.44551 40.6856 3.43648 37.2265 2.73587C34.1262 2.10824 27.7332 4.42824 28.5959 5.29797Z" fill="#747885"/>
<path d="M12.0131 25.4391C12.2415 25.8076 12.7253 25.921 13.0936 25.6928L14.8723 24.5902C15.2405 24.3618 15.3539 23.878 15.1258 23.5095L14.5556 22.5898C13.4762 23.4736 12.0626 24.0104 11.2837 24.2625L12.0131 25.4391Z" fill="#747885"/>
<path d="M8.63632 19.9918L10.8576 23.5753C10.8871 23.566 10.9181 23.5564 10.9508 23.546C11.2271 23.4579 11.611 23.3245 12.0348 23.146C12.7319 22.855 13.532 22.4336 14.1382 21.916L11.7491 18.0622C11.5206 17.6939 11.037 17.5803 10.6685 17.8085L8.89 18.9113C8.52154 19.1397 8.40814 19.6233 8.63632 19.9918Z" fill="#747885"/>
<path d="M8.77002 18.4083L10.2709 17.4781C10.501 17.3355 10.5721 17.0329 10.4292 16.803C10.2866 16.5727 9.98426 16.5018 9.75393 16.6443L9.44139 16.8381L9.18281 16.4212L8.30739 16.9641L8.56578 17.381L8.25324 17.5748C8.02291 17.7177 7.95189 18.02 8.09472 18.2501C8.23754 18.4801 8.53988 18.5513 8.77002 18.4083Z" fill="#747885"/>
<path d="M116.2 7.22577C116.226 7.37174 116.219 7.51673 116.17 7.65446C115.953 8.26757 115.032 8.50104 114.113 8.17594C113.202 7.85438 112.636 7.10551 112.835 6.49573C111.484 6.13199 109.992 5.68624 108.588 5.26697C107.709 6.99681 108.048 9.16516 109.554 10.5317C111.36 12.1699 114.151 12.0339 115.789 10.2291C116.559 9.38058 116.932 8.31426 116.929 7.25226C116.734 7.26815 116.488 7.25795 116.2 7.22577Z" fill="#747885"/>
<path d="M111.884 0.773924C108.783 0.145905 102.39 2.46591 103.253 3.33583C103.351 3.43452 103.54 3.51476 103.84 3.5697C106.783 4.10923 117.03 7.8436 117.42 6.62464C117.51 6.34134 117.56 6.06078 117.576 5.78414C117.707 3.48337 115.343 1.47453 111.884 0.773924Z" fill="#747885"/>
<path d="M119.98 28.5906C124.314 28.5906 127.828 32.1042 127.828 36.4384C127.828 40.7727 124.314 44.2863 119.98 44.2863C115.645 44.2863 112.132 40.7727 112.132 36.4384C112.132 33.7336 113.5 31.3489 115.582 29.9376L114.584 27.8397C111.727 29.6363 109.827 32.8144 109.827 36.4386C109.827 42.0458 114.372 46.5912 119.98 46.5912C125.587 46.5912 130.132 42.046 130.132 36.4386C130.132 30.8315 125.587 26.2861 119.98 26.2861C118.835 26.2861 117.736 26.4783 116.709 26.8276L117.708 28.9261C118.427 28.7087 119.19 28.5906 119.98 28.5906Z" fill="#747885"/>
<path d="M85.972 26.2859C80.3648 26.2859 75.8193 30.8314 75.8193 36.4384C75.8193 42.0456 80.3648 46.5911 85.972 46.5911C88.8372 46.5911 91.4231 45.4023 93.2689 43.4934C94.8651 41.8428 95.9053 39.6532 96.0911 37.2232H96.7802H100.779C100.656 37.0237 100.555 36.8096 100.483 36.5805C100.387 36.276 100.347 35.9636 100.355 35.6536H96.9426H96.0911C95.9099 33.2869 94.9189 31.148 93.3925 29.5131C92.9083 28.9946 92.3707 28.5275 91.7882 28.1194L92.1537 27.549L92.8981 26.3876L93.7354 25.0813H99.9273C99.8526 25.0309 99.7774 24.9806 99.6997 24.9322C98.2489 24.013 96.5832 23.6636 96.4688 23.641C96.4576 23.6395 96.4472 23.6375 96.4366 23.6353C95.5697 23.4796 94.8455 22.9516 94.4313 22.1792C94.1567 21.9141 93.924 21.6434 93.7252 21.3679C91.9385 21.459 90.5598 22.032 90.5598 22.7272C90.5598 23.2025 91.2041 23.6214 92.1829 23.8678C92.3132 23.9006 92.4509 23.9292 92.5924 23.9557L91.4502 25.738L91.0731 26.3261L90.4366 27.3193C89.0891 26.6585 87.5743 26.2859 85.972 26.2859ZM85.972 44.2864C81.6377 44.2864 78.1242 40.7727 78.1242 36.4384C78.1242 32.1043 81.6377 28.5906 85.972 28.5906C87.116 28.5906 88.2016 28.8374 89.1818 29.2775L84.8633 36.015C84.7077 36.2573 84.6973 36.5622 84.8353 36.8151C84.9736 37.0674 85.2357 37.2232 85.5239 37.2232H93.7804C93.387 41.1891 90.0415 44.2864 85.972 44.2864ZM93.7806 35.6536H86.9587L90.5433 30.0615C92.3268 31.3423 93.552 33.3507 93.7806 35.6536Z" fill="#747885"/>
<path d="M119.036 21.492C118.754 22.2631 118.013 22.781 117.192 22.781C116.963 22.781 116.737 22.7408 116.52 22.6616C116.511 22.6584 116.503 22.6549 116.494 22.6518C116.391 22.7228 116.29 22.7899 116.191 22.8495C115.125 23.4946 114.339 23.5113 114.242 23.5123C114.239 23.5123 114.236 23.5123 114.233 23.5123C114.227 23.5119 114.221 23.5128 114.215 23.5127C114.21 23.5127 114.206 23.5117 114.201 23.5117H106.284C106.569 23.9415 106.865 24.4656 107.127 25.0812H112.71L107.434 32.7644C107.063 34.1378 106.492 35.5688 105.719 37.0481C105.688 37.108 105.654 37.1662 105.619 37.2231H105.863C106.122 37.2231 106.362 37.0966 106.509 36.8827L114.077 25.8629L119.271 36.7754C119.405 37.0579 119.687 37.2233 119.98 37.2233C120.093 37.2233 120.208 37.1988 120.317 37.147C120.708 36.9608 120.874 36.4921 120.688 36.1011L115.363 24.9111C115.823 24.7846 116.386 24.5666 117.004 24.1925C118.36 23.3737 119.95 21.812 121.289 18.9388C121.472 18.5458 121.302 18.079 120.909 17.896C120.517 17.7126 120.05 17.8827 119.866 18.2754V18.2748C119.568 18.9125 119.262 19.4693 118.954 19.959C118.96 19.9702 118.966 19.9804 118.972 19.9916C119.193 20.4671 119.215 21 119.036 21.492Z" fill="#747885"/>
<path d="M86.9862 23.1462C87.6829 22.8552 88.4829 22.4338 89.0894 21.9162L86.7003 18.0622C86.4717 17.6939 85.9881 17.5803 85.6197 17.8085L83.8412 18.9113C83.4727 19.1395 83.3593 19.6233 83.5875 19.9918L85.809 23.5753C85.8384 23.5662 85.8696 23.5564 85.9022 23.546C86.1782 23.4581 86.5622 23.3247 86.9862 23.1462Z" fill="#747885"/>
<path d="M86.2349 24.2623L86.9645 25.4391C87.1929 25.8076 87.6767 25.921 88.045 25.6928L89.2924 24.9196L89.8237 24.5902C90.1919 24.3618 90.3053 23.878 90.0771 23.5095L89.507 22.5898C88.4275 23.4736 87.014 24.0102 86.2349 24.2623Z" fill="#747885"/>
<path d="M83.0464 18.2499C83.1892 18.4801 83.4916 18.5511 83.7215 18.4083L85.2224 17.4781C85.4525 17.3355 85.5235 17.0329 85.3807 16.803C85.2381 16.5727 84.9357 16.5018 84.7054 16.6443L84.3927 16.8381L84.1343 16.4212L83.2589 16.9641L83.5174 17.381L83.2047 17.5748C82.9746 17.7175 82.9036 18.0198 83.0464 18.2499Z" fill="#747885"/>
<path d="M105.371 36.8667C106.861 34.0172 107.547 31.4768 107.549 29.1866C107.554 27.7156 107.252 26.3703 106.75 25.2006C105.127 26.6597 103.13 27.2473 102.358 27.4319C102.534 27.9269 102.639 28.4923 102.644 29.1866C102.645 30.4751 102.251 32.2496 101.025 34.5932C100.397 35.7935 100.861 37.2757 102.062 37.9032C102.424 38.0931 102.813 38.1831 103.196 38.1831C104.08 38.1831 104.933 37.704 105.371 36.8667Z" fill="#747885"/>
<path d="M94.7502 21.9413C95.0892 22.61 95.727 23.1165 96.5228 23.2529L96.5224 23.2525V23.2521C96.674 23.2751 98.4145 23.6535 99.9081 24.5996C100.679 25.0803 101.373 25.6881 101.85 26.4099C101.949 26.5619 102.039 26.7201 102.123 26.8835C102.191 26.8682 102.275 26.8482 102.375 26.8219C102.66 26.7477 103.061 26.6292 103.522 26.4515C104.423 26.1048 105.549 25.5307 106.487 24.6398C106.292 24.2557 106.075 23.8925 105.84 23.555C104.383 21.4638 102.413 20.2617 100.783 19.5225C102.254 17.9411 104.004 16.5519 105.47 15.392C104.346 14.1952 103.666 13.2468 103.404 12.8591L103.392 12.8413C103.098 12.3892 103.001 11.8652 103.11 11.3523C103.22 10.8399 103.522 10.4006 103.962 10.1155C104.281 9.90873 104.649 9.79926 105.028 9.79926C105.696 9.79926 106.312 10.1338 106.675 10.6941L106.685 10.7084L106.697 10.7255C106.717 10.7553 106.755 10.8091 106.807 10.8811C106.953 11.0834 107.118 11.2988 107.297 11.5203C107.505 11.7773 107.783 12.1061 108.129 12.483C108.476 11.5811 108.473 10.6372 107.955 9.91972C106.945 8.51987 104.503 7.64877 101.895 9.20636C98.3209 11.369 96.4396 13.1522 94.0154 16.8097C92.6469 19.2596 93.5706 20.8236 94.7502 21.9413Z" fill="#747885"/>
<path d="M106.991 11.7667C106.762 11.4838 106.594 11.2586 106.487 11.1099C106.434 11.0351 106.395 10.9794 106.371 10.9449C106.359 10.9278 106.351 10.9158 106.347 10.9093L106.345 10.9074C105.874 10.1801 104.902 9.97271 104.175 10.4448C103.447 10.9162 103.24 11.8882 103.712 12.6155C103.816 12.7626 107.919 19.0897 116.655 22.2933C116.832 22.3581 117.014 22.3889 117.193 22.3889C117.833 22.3889 118.435 21.9939 118.667 21.3575C118.965 20.5431 118.546 19.6418 117.731 19.3447C113.856 17.9306 110.989 15.7958 109.095 14.018C108.149 13.1299 107.448 12.3321 106.991 11.7667Z" fill="#747885"/>
</svg>
