<?xml version="1.0" encoding="utf-8"?>
<!-- Generator: Adobe Illustrator 19.0.0, SVG Export Plug-In . SVG Version: 6.00 Build 0)  -->
<svg version="1.1" id="Capa_1" xmlns="http://www.w3.org/2000/svg" xmlns:xlink="http://www.w3.org/1999/xlink" x="0px" y="0px"
	 viewBox="-284.1 402.7 34.1 36.4" style="enable-background:new -284.1 402.7 34.1 36.4;" xml:space="preserve">
<style type="text/css">
	.st0{fill:#ED1C24;}
</style>
<path class="st0" d="M-267,416.2c-1.4,0-2.5,1.1-2.5,2.5c0,1.4,1.1,2.5,2.5,2.5c1.4,0,2.5-1.1,2.5-2.5
	C-264.5,417.3-265.7,416.2-267,416.2z"/>
<path class="st0" d="M-258.9,404.5h-16.4c-3.5,0-6.3,2.8-6.3,6.3V435c0,0.7,0.4,1.4,1,1.8c0.3,0.2,0.6,0.2,0.9,0.2
	c0.4,0,0.7-0.1,1.1-0.3l5.5-4.9h14.1c3.5,0,6.3-2.8,6.3-6.3v-14.6C-252.6,407.4-255.4,404.5-258.9,404.5z M-255.3,425.5
	c0,2-1.6,3.5-3.5,3.5H-274l-4.8,4.3v-22.5c0-2,1.6-3.5,3.5-3.5h16.4c2,0,3.5,1.6,3.5,3.5V425.5z"/>
<path class="st0" d="M-274.2,416.2c-1.4,0-2.5,1.1-2.5,2.5c0,1.4,1.1,2.5,2.5,2.5c1.4,0,2.5-1.1,2.5-2.5
	C-271.6,417.3-272.8,416.2-274.2,416.2z"/>
<path class="st0" d="M-260,416.2c-1.4,0-2.5,1.1-2.5,2.5c0,1.4,1.1,2.5,2.5,2.5c1.4,0,2.5-1.1,2.5-2.5
	C-257.4,417.3-258.6,416.2-260,416.2z"/>
</svg>
