<?xml version="1.0" encoding="utf-8"?>
<!-- Generator: Adobe Illustrator 19.0.0, SVG Export Plug-In . SVG Version: 6.00 Build 0)  -->
<svg version="1.1" id="Capa_1" xmlns:serif="http://www.serif.com/"
	 xmlns="http://www.w3.org/2000/svg" xmlns:xlink="http://www.w3.org/1999/xlink" x="0px" y="0px" viewBox="0 123.3 595.3 595.3"
	 style="enable-background:new 0 123.3 595.3 595.3;" xml:space="preserve">
<style type="text/css">
	.st0{fill:#ED1C24;}
</style>
<path class="st0" d="M541.9,361.2L308.2,181.5c-6.4-4.8-15.4-4.8-21.9,0L52.6,361.4c-4.4,3.4-6.9,8.6-6.9,14.2v269.7
	c0,9.9,8.1,18,18,18H531c9.8,0,18-8.1,18.1-18.2V375.5C549,369.9,546.4,364.7,541.9,361.2z M93.1,375.6l204.1-157l204.2,157
	L297.3,532.7L93.1,375.6z M387.4,545.9l95.1,81.4H112.2l95-81.4l-23.4-27.3L81.5,606.2v-194l204.8,157.5c6.4,4.8,15.4,4.8,21.9,0
	L513,412.2v194l-102.1-87.6L387.4,545.9z"/>
</svg>
