<?xml version="1.0" encoding="UTF-8" standalone="no"?><!DOCTYPE svg PUBLIC "-//W3C//DTD SVG 1.1//EN" "http://www.w3.org/Graphics/SVG/1.1/DTD/svg11.dtd"><svg width="100%" height="100%" viewBox="0 0 32 32" version="1.1" xmlns="http://www.w3.org/2000/svg" xmlns:xlink="http://www.w3.org/1999/xlink" xml:space="preserve" xmlns:serif="http://www.serif.com/" style="fill-rule:evenodd;clip-rule:evenodd;stroke-linejoin:round;stroke-miterlimit:2;"><path d="M16,29.186c7.282,0 13.186,-5.904 13.186,-13.186c0,-7.282 -5.904,-13.186 -13.186,-13.186c-7.282,0 -13.186,5.904 -13.186,13.186c0,7.282 5.904,13.186 13.186,13.186Zm0,1.978c-8.375,0 -15.164,-6.79 -15.164,-15.164c0,-8.375 6.789,-15.164 15.164,-15.164c8.374,0 15.164,6.789 15.164,15.164c0,8.374 -6.79,15.164 -15.164,15.164Z" style="fill:#ed1c24;fill-rule:nonzero;"/><path d="M15.991,27.538c-6.371,0 -11.537,-5.166 -11.537,-11.538c0,-6.372 5.166,-11.538 11.537,-11.538c6.373,0 11.538,5.166 11.538,11.538c0,6.372 -5.165,11.538 -11.538,11.538Zm0.645,-8.641c-0.208,0.045 -0.423,0.07 -0.645,0.07c-0.221,0 -0.436,-0.025 -0.643,-0.07l-3.558,5.693c1.269,0.621 2.694,0.97 4.201,0.97c1.508,0 2.934,-0.349 4.202,-0.97l-3.557,-5.693Zm-10.154,-1.909c0.273,2.658 1.635,4.994 3.632,6.552l3.557,-5.691c-0.204,-0.256 -0.367,-0.547 -0.478,-0.861l-6.711,0Zm19.019,0l-6.712,0c-0.111,0.314 -0.273,0.605 -0.476,0.86l3.557,5.692c1.996,-1.558 3.357,-3.894 3.63,-6.552Zm-9.509,-1.977c-0.546,0 -0.988,0.443 -0.988,0.989c0,0.546 0.442,0.988 0.988,0.988c0.546,0 0.989,-0.442 0.989,-0.988c0,-0.546 -0.443,-0.989 -0.989,-0.989Zm5.879,-6.551l-3.557,5.692c0.203,0.255 0.365,0.545 0.476,0.859l6.711,0c-0.273,-2.658 -1.634,-4.992 -3.63,-6.551Zm-11.756,0c-1.997,1.558 -3.359,3.893 -3.632,6.551l6.711,0c0.111,-0.314 0.274,-0.604 0.478,-0.86l-3.557,-5.691Zm10.079,-1.05c-1.268,-0.621 -2.694,-0.97 -4.202,-0.97c-1.507,0 -2.933,0.349 -4.201,0.97l3.558,5.693c0.207,-0.046 0.422,-0.07 0.643,-0.07c0.222,0 0.437,0.024 0.645,0.07l3.557,-5.693Z" style="fill:#ed1c24;fill-rule:nonzero;"/></svg>