<?xml version="1.0" encoding="UTF-8" standalone="no"?><!DOCTYPE svg PUBLIC "-//W3C//DTD SVG 1.1//EN" "http://www.w3.org/Graphics/SVG/1.1/DTD/svg11.dtd"><svg width="100%" height="100%" viewBox="0 0 32 32" version="1.1" xmlns="http://www.w3.org/2000/svg" xmlns:xlink="http://www.w3.org/1999/xlink" xml:space="preserve" xmlns:serif="http://www.serif.com/" style="fill-rule:evenodd;clip-rule:evenodd;stroke-linejoin:round;stroke-miterlimit:2;"><path d="M25.392,5.299c1.987,0.025 3.779,1.644 3.86,3.637c0.075,5.373 0.001,10.748 0.001,16.122c-0.026,1.965 -1.755,3.657 -3.764,3.731c-6.326,0.078 -12.653,0.078 -18.979,0c-1.954,-0.072 -3.685,-1.674 -3.762,-3.636c-0.071,-5.373 -0.001,-10.748 -0.001,-16.121c0.026,-1.992 1.791,-3.707 3.861,-3.733l1.917,0l0,-2.09l1.945,0l0,2.09l11.058,0l0,-2.09l1.945,0l0,2.09l1.919,0Zm1.915,7.467l-22.616,0c0,4.112 -0.054,8.224 0.001,12.336c0.038,0.965 0.891,1.756 1.868,1.792c6.293,0.077 12.587,0.077 18.88,0c0.983,-0.036 1.854,-0.853 1.867,-1.841l0,-12.287Zm-18.78,-5.574l-1.916,0c-1.003,0.012 -1.907,0.832 -1.92,1.842l0,1.839l22.616,0c0,-0.847 0.139,-1.749 -0.1,-2.428c-0.261,-0.742 -1.016,-1.242 -1.818,-1.252l-1.916,0l0,1.393l-1.945,0l0,-1.393l-11.058,0l0,1.392l-1.943,0l0,-1.393Z" style="fill:#ed1c24;fill-rule:nonzero;"/></svg>