<?xml version="1.0" encoding="UTF-8" standalone="no"?><!DOCTYPE svg PUBLIC "-//W3C//DTD SVG 1.1//EN" "http://www.w3.org/Graphics/SVG/1.1/DTD/svg11.dtd"><svg width="100%" height="100%" viewBox="0 0 32 32" version="1.1" xmlns="http://www.w3.org/2000/svg" xmlns:xlink="http://www.w3.org/1999/xlink" xml:space="preserve" xmlns:serif="http://www.serif.com/" style="fill-rule:evenodd;clip-rule:evenodd;stroke-linejoin:round;stroke-miterlimit:2;"><path d="M28,27.1l0,-19.9l0,-0.4l0,-0.9c0,-1.2 -1.1,-2.2 -2.4,-2.2l-0.3,0l-16.6,0l-0.6,0l-1.1,0c-1.3,0 -2.4,1 -2.4,2.3l0,21.6c0,0.2 0.1,0.4 0.3,0.6c0.2,0.2 0.4,0.3 0.7,0.3c0.2,0 0.3,-0.1 0.5,-0.1c0.1,0 0.1,-0.1 0.2,-0.1c1,-0.7 1.9,-1.5 2.9,-2.2l3,3c0.3,0.3 1,0.3 1.3,0l2.9,-2.9l2.9,2.9c0.2,0.2 0.4,0.3 0.7,0.3c0.2,0 0.5,-0.1 0.7,-0.3l3,-3l2.9,2.2c0.3,0.2 0.7,0.3 1,0.2c0.3,-0.1 0.6,-0.5 0.6,-0.8l0,-0.6l-0.2,0Zm-5.2,-3l-2.9,2.9l-2.9,-2.9c-0.2,-0.2 -0.4,-0.3 -0.7,-0.3c-0.3,0 -0.5,0.1 -0.7,0.3l-2.9,2.9l-2.9,-2.9c-0.4,-0.4 -0.9,-0.3 -1.3,0c-0.7,0.5 -1.4,1.1 -2,1.6l0,-18.3l0,-0.5l0,-1l0,-0.1l0.1,-0.2l19.3,0l0.1,0.1l0.1,0.2l0,19.9l-1.6,-1.2c-0.1,-0.1 -0.3,-0.2 -0.4,-0.3c-0.3,-0.5 -0.9,-0.5 -1.3,-0.2Z" style="fill:#ed1c24;fill-rule:nonzero;"/><path d="M22.5,9l-10.9,0l-0.5,0l-1,0c-0.5,0 -0.9,0.4 -0.9,0.9l0,4.3c0,0.5 0.4,0.9 0.9,0.9l12.4,0c0.3,0 0.5,-0.1 0.7,-0.3c0.2,-0.2 0.2,-0.4 0.2,-0.6l0,-4.3c0,-0.5 -0.4,-0.9 -0.9,-0.9Zm-1,1.7l0,2.5l-10,0l-0.5,0l-0.1,0l0,-2.5l10.6,0Z" style="fill:#ed1c24;fill-rule:nonzero;"/><path d="M22.5,18.2l-10.9,0l-0.5,0l-1,0c-0.3,0 -0.5,0.1 -0.7,0.3c-0.2,0.2 -0.2,0.4 -0.2,0.6c0,0.5 0.4,0.9 0.9,0.9l12.4,0c0.3,0 0.5,-0.1 0.7,-0.3c0.2,-0.2 0.2,-0.4 0.2,-0.6c0,-0.5 -0.4,-0.9 -0.9,-0.9Z" style="fill:#ed1c24;fill-rule:nonzero;"/></svg>