<?xml version="1.0" encoding="UTF-8" standalone="no"?><!DOCTYPE svg PUBLIC "-//W3C//DTD SVG 1.1//EN" "http://www.w3.org/Graphics/SVG/1.1/DTD/svg11.dtd"><svg width="100%" height="100%" viewBox="0 0 32 32" version="1.1" xmlns="http://www.w3.org/2000/svg" xmlns:xlink="http://www.w3.org/1999/xlink" xml:space="preserve" xmlns:serif="http://www.serif.com/" style="fill-rule:evenodd;clip-rule:evenodd;stroke-linejoin:round;stroke-miterlimit:2;"><path d="M25.885,4.309c0.271,0.015 0.541,0.078 0.744,0.268c1.208,1.114 2.336,2.312 3.503,3.469c0.372,0.426 0.377,1.068 0.004,1.501l-17.847,17.846c-0.427,0.369 -1.068,0.371 -1.498,0l-8.927,-8.927c-0.369,-0.427 -0.37,-1.068 0,-1.498l3.427,-3.426c0.425,-0.368 1.065,-0.373 1.497,-0.003l4.75,4.726l13.719,-13.712c0.278,-0.198 0.094,-0.252 0.628,-0.244Zm-13.596,16.217c-0.424,0.366 -1.064,0.372 -1.496,0.002l-4.751,-4.726l-1.915,1.915l7.413,7.413l16.329,-16.329l-1.936,-1.919c-4.548,4.548 -9.096,9.096 -13.644,13.644Z" style="fill:#ed1c24;"/></svg>