<?xml version="1.0" encoding="UTF-8" standalone="no"?><!DOCTYPE svg PUBLIC "-//W3C//DTD SVG 1.1//EN" "http://www.w3.org/Graphics/SVG/1.1/DTD/svg11.dtd"><svg width="100%" height="100%" viewBox="0 0 15 15" version="1.1" xmlns="http://www.w3.org/2000/svg" xmlns:xlink="http://www.w3.org/1999/xlink" xml:space="preserve" xmlns:serif="http://www.serif.com/" style="fill-rule:evenodd;clip-rule:evenodd;stroke-linejoin:round;stroke-miterlimit:2;"><rect id="Mesa-de-trabajo2" serif:id="Mesa de trabajo2" x="0" y="0" width="14.675" height="14.675" style="fill:none;"/><path d="M13.188,13.212l-11.7,0c-0.138,0 -0.25,-0.112 -0.25,-0.25l0,-6.75c0,-0.077 0.036,-0.15 0.097,-0.198l5.85,-4.5c0.09,-0.068 0.215,-0.068 0.305,0l5.848,4.499c0.063,0.047 0.1,0.12 0.1,0.199l0,6.75c0,0.138 -0.112,0.25 -0.25,0.25Zm-0.675,-0.499l-2.637,-2.261l0.326,-0.379l2.736,2.346l0,-5.699l-5.447,4.19c-0.09,0.068 -0.215,0.068 -0.305,0l-5.448,-4.19l0,5.699l2.737,-2.346l0.325,0.379l-2.637,2.261l10.35,0Zm-5.175,-10.686l5.439,4.185l-5.439,4.185l-5.44,-4.185l5.44,-4.185Z" style="fill:#f00;stroke:#f00;stroke-width:0.41px;"/></svg>