<?xml version="1.0" encoding="UTF-8" standalone="no"?><!DOCTYPE svg PUBLIC "-//W3C//DTD SVG 1.1//EN" "http://www.w3.org/Graphics/SVG/1.1/DTD/svg11.dtd"><svg width="100%" height="100%" viewBox="0 0 33 33" version="1.1" xmlns="http://www.w3.org/2000/svg" xmlns:xlink="http://www.w3.org/1999/xlink" xml:space="preserve" xmlns:serif="http://www.serif.com/" style="fill-rule:evenodd;clip-rule:evenodd;stroke-linejoin:round;stroke-miterlimit:2;"><rect id="_3" serif:id="3" x="0" y="0" width="33" height="33" style="fill:none;"/><path d="M23.213,4.195c1.365,0.074 2.737,0.524 3.833,1.334c0.556,0.438 0.545,1.372 -0.038,1.799c-1.11,0.699 -2.221,1.396 -3.304,2.135c0,0 -0.376,0.052 -0.212,0.468c0.159,0.39 0.445,0.843 0.543,0.784c1.29,-0.777 2.526,-1.742 3.873,-2.318c1.093,-0.421 1.609,1.262 1.601,2.317c-0.026,3.328 -2.826,6.377 -6.3,6.512c-0.301,0.012 -1.766,-0.556 -2.661,0.201c-3.724,3.413 -7.186,7.176 -10.786,10.786l-0.721,0.722c-2.237,2.03 -6.898,-0.184 -5.92,-3.418c0.357,-1.183 1.417,-2.047 2.348,-2.99c3.368,-3.399 6.775,-6.759 10.161,-10.14c1.212,-1.251 0.763,-3.23 1.721,-4.916c1.128,-1.986 3.334,-3.235 5.638,-3.279c0.112,-0.001 0.112,-0.001 0.224,0.003Zm-0.258,1.917c-2.511,0.046 -4.428,2.324 -4.551,4.97c-0.069,1.04 -0.68,1.967 -1.43,2.679c-3.864,3.863 -7.831,7.624 -11.588,11.59c-1.111,1.213 0.757,3.599 2.298,2.222c3.98,-3.701 7.596,-7.779 11.531,-11.531c1.41,-1.303 3.638,-0.324 5.48,-1.052c1.664,-0.657 2.855,-2.351 2.912,-4.161l-2.658,1.579c-0.752,0.402 -1.789,0.45 -2.31,-0.288c-1.13,-1.772 -2.925,-2.4 2.018,-5.576c0,0 -0.854,-0.437 -1.702,-0.432Z" style="fill:#ed1c24;"/></svg>