<?xml version="1.0" encoding="UTF-8" standalone="no"?><!DOCTYPE svg PUBLIC "-//W3C//DTD SVG 1.1//EN" "http://www.w3.org/Graphics/SVG/1.1/DTD/svg11.dtd">
<svg width="100%" height="100%" viewBox="0 0 33 33" version="1.1" xmlns="http://www.w3.org/2000/svg" xmlns:xlink="http://www.w3.org/1999/xlink" xml:space="preserve" xmlns:serif="http://www.serif.com/" style="fill-rule:evenodd;clip-rule:evenodd;stroke-linejoin:round;stroke-miterlimit:2;">
   <rect id="_2" serif:id="2" x="0" y="0" width="33" height="33" style="fill:none;"/>
   <path d="M28.928,15.627c1.077,0.16 1.172,2.065 -0.095,2.167l-5.248,0l-2.081,10.369c-0.294,0.831 -1.663,0.926 -2.048,0.082l-7.107,-18.955l-1.993,8.341c-0.242,0.6 -0.967,0.724 -1.748,0.74c-1.425,0.024 -2.848,-0.018 -4.276,-0.021c-0.966,-0.024 -1.673,-1.616 -0.414,-2.104c0.136,-0.054 0.281,-0.076 0.428,-0.071l4.127,0l2.615,-10.958c0.316,-0.818 1.632,-0.917 2.031,-0.05l7.027,18.735l1.512,-7.531c0.156,-0.424 0.559,-0.724 1.015,-0.752l6.156,0c0.05,0.003 0.05,0.003 0.099,0.008Z" style="fill:#ed1c24;"/>
</svg>
