<?xml version="1.0" encoding="UTF-8" standalone="no"?><!DOCTYPE svg PUBLIC "-//W3C//DTD SVG 1.1//EN" "http://www.w3.org/Graphics/SVG/1.1/DTD/svg11.dtd"><svg width="100%" height="100%" viewBox="0 0 33 33" version="1.1" xmlns="http://www.w3.org/2000/svg" xmlns:xlink="http://www.w3.org/1999/xlink" xml:space="preserve" xmlns:serif="http://www.serif.com/" style="fill-rule:evenodd;clip-rule:evenodd;stroke-linejoin:round;stroke-miterlimit:2;"><rect id="_1" serif:id="1" x="0" y="0" width="33" height="33" style="fill:none;"/><g id="_11" serif:id="1"><g><rect id="_12" serif:id="1" x="1.585" y="1.585" width="29.829" height="29.829" style="fill:none;"/><path d="M26.033,7.338c-2.48,-2.491 -5.752,-3.864 -9.22,-3.864c-7.26,-0.005 -13.168,5.903 -13.168,13.164c0,3.467 1.373,6.739 3.863,9.22c2.495,2.485 5.803,3.853 9.305,3.853c1.749,0 3.453,-0.351 5.061,-1.037c1.553,-0.662 2.951,-1.614 4.159,-2.816c1.208,-1.208 2.155,-2.606 2.816,-4.159c0.687,-1.609 1.037,-3.312 1.037,-5.061c0,-3.503 -1.368,-6.805 -3.853,-9.3Zm1.949,9.3c0,6.158 -5.011,11.169 -11.169,11.169c-6.208,0 -11.264,-5.011 -11.264,-11.169c0,-6.209 5.051,-11.265 11.264,-11.265c6.158,0 11.169,5.056 11.169,11.265Z" style="fill:#f00;fill-rule:nonzero;"/><path d="M21.799,18.592c-0.005,-0.005 -0.005,-0.005 0,0l-4.084,-2.505l0,-6.71c0,-0.656 -0.481,-0.997 -0.952,-0.997c-0.471,0 -0.952,0.341 -0.952,0.997l0,7.261c0,0.356 0.231,0.681 0.556,0.797l4.42,2.725c0.17,0.111 0.34,0.161 0.501,0.161c0.31,0 0.591,-0.176 0.756,-0.426c0.261,-0.391 0.261,-0.967 -0.245,-1.303Z" style="fill:#f00;fill-rule:nonzero;"/></g></g></svg>