<svg width="66" height="41" viewBox="0 0 66 41" fill="none" xmlns="http://www.w3.org/2000/svg">
<path d="M44.2147 12.4342L46.2698 17.0431L46.1055 17.1361C42.1035 19.415 39.714 23.5168 39.714 28.1122C39.714 35.0879 45.3889 40.7637 52.3646 40.7637C59.3403 40.7637 65.0153 35.0888 65.0153 28.1122C65.0153 21.1373 59.3403 15.4616 52.3646 15.4616C51.1544 15.4616 49.9408 15.6426 48.759 15.9988L48.5822 16.0516L42.2275 1.81941L41.1933 2.0985C41.1933 2.0985 40.6937 2.23595 40.009 2.23595C38.6353 2.23595 37.6379 1.71464 37.0437 0.685422L36.7294 0.141479L34.5511 1.39867L34.8663 1.94345C36.281 4.38574 38.7317 4.75116 40.0677 4.75116C40.2546 4.75116 40.4406 4.74362 40.625 4.73021L40.7725 4.71848L42.5317 8.66269H22.8174L23.5549 6.9437L23.7217 6.97722C24.119 7.05852 24.5213 7.11887 24.9177 7.15826L27.7129 7.1021L28.4638 6.98393V3.12939L27.7112 3.28193C27.1798 3.39005 26.6342 3.44453 26.0886 3.44453C23.9204 3.44453 21.8845 2.60137 20.3575 1.0718L19.9133 0.627593L17.2439 3.2945L17.6881 3.73871C18.6444 4.69501 19.7482 5.47363 20.9702 6.05445L21.1545 6.14161L16.7737 16.0927L16.5951 16.0365C15.3757 15.656 14.121 15.4624 12.8655 15.4624C5.89062 15.4624 0.214844 21.1373 0.214844 28.113C0.214844 35.0887 5.88978 40.7645 12.8655 40.7645C19.3903 40.7645 24.7954 35.8732 25.4382 29.387L25.4566 29.1976H36.8074L44.2147 12.4342ZM52.3328 38.2946C46.7198 38.2946 42.1529 33.7268 42.1529 28.113C42.1529 24.5242 43.9918 21.2723 47.0719 19.415L47.2747 19.2926L50.7118 26.9958L50.6624 27.0855C50.5048 27.378 50.4227 27.7082 50.4227 28.041C50.4227 29.1624 51.3346 30.0743 52.456 30.0743C53.5774 30.0743 54.4901 29.1624 54.4901 28.041C54.4901 27.1919 53.9512 26.4259 53.1508 26.1359L53.0661 26.1049L49.5921 18.3179L49.8318 18.2559C50.6557 18.043 51.4972 17.9349 52.3319 17.9349C57.944 17.9349 62.5109 22.501 62.5109 28.1139C62.5109 33.726 57.9448 38.2946 52.3328 38.2946ZM12.8336 38.2946C7.22073 38.2946 2.65379 33.7268 2.65379 28.113C2.65379 22.501 7.22073 17.934 12.8336 17.934C13.7371 17.934 14.644 18.0597 15.5299 18.307L15.7629 18.3724L14.2501 21.776L14.0179 22.3669L14.0255 22.3711L12.3827 26.0915L12.2956 26.1208C11.475 26.3999 10.9236 27.171 10.9236 28.0401C10.9236 29.1615 11.8354 30.0734 12.9568 30.0734C13.5947 30.0734 14.1822 29.7834 14.5694 29.2789L14.6323 29.1967H22.9448L22.9146 29.4331C22.2642 34.4853 17.9303 38.2946 12.8336 38.2946ZM35.1705 26.6824H25.4214L25.398 26.4997C24.901 22.6577 22.6062 19.1853 19.2579 17.2124L19.0969 17.1177L21.7211 11.1771H42.0213L35.1705 26.6824ZM22.9037 26.6824H14.8703L18.087 19.4033L18.2923 19.5348C20.7187 21.0896 22.3841 23.6056 22.8618 26.4368L22.9037 26.6824Z" fill="#ED1C24"/>
</svg>
